<svg width="67" height="67" viewBox="0 0 67 67" fill="none" xmlns="http://www.w3.org/2000/svg">
<path d="M33.5 65.1747C28.3149 65.1748 23.2098 63.8961 18.637 61.4518C14.0641 59.0076 10.1647 55.4732 7.28417 51.1618C4.40362 46.8505 2.63086 41.8952 2.12295 36.7351C1.61503 31.5749 2.38764 26.3691 4.37231 21.5789C6.35699 16.7886 9.49248 12.5618 13.501 9.27287C17.5095 5.98394 22.2673 3.73441 27.353 2.72358C32.4386 1.71274 37.695 1.9718 42.6566 3.4778C47.6182 4.9838 52.1317 7.69026 55.7974 11.3574C55.8839 11.4409 55.9529 11.5408 56.0003 11.6513C56.0478 11.7618 56.0728 11.8806 56.0738 12.0008C56.0749 12.121 56.052 12.2402 56.0064 12.3515C55.9609 12.4628 55.8937 12.5639 55.8087 12.6489C55.7237 12.7339 55.6226 12.8011 55.5113 12.8466C55.4 12.8922 55.2808 12.9151 55.1606 12.914C55.0404 12.913 54.9215 12.888 54.8111 12.8406C54.7006 12.7931 54.6007 12.7241 54.5172 12.6377C49.6454 7.7661 43.2325 4.73829 36.3752 4.072C29.5179 3.40571 22.642 5.14231 16.9235 8.98485C11.205 12.8274 6.99891 18.5372 5.02459 25.1379C3.05027 31.7385 3.43031 38.8201 6.09973 45.1715C8.76914 51.523 13.5621 56.7498 19.6591 59.9583C25.756 63.1667 32.7782 64.1575 39.5248 62.7611C46.2714 61.3647 52.3234 57.668 56.6459 52.303C60.9684 46.938 63.2928 40.2381 63.2218 33.3488C63.2194 33.1088 63.3123 32.8777 63.4802 32.7062C63.6481 32.5348 63.8772 32.437 64.1172 32.4343C64.2369 32.4303 64.3562 32.4506 64.4678 32.4939C64.5794 32.5373 64.6811 32.6029 64.7667 32.6867C64.8523 32.7704 64.9199 32.8707 64.9656 32.9814C65.0113 33.0921 65.0341 33.2109 65.0326 33.3307C65.077 37.4986 64.294 41.634 62.729 45.4972C61.1639 49.3604 58.8479 52.8747 55.9151 55.8365C52.9822 58.7982 49.4909 61.1487 45.6433 62.7516C41.7956 64.3546 37.6682 65.1782 33.5 65.1747Z" fill="white"/>
<path d="M55.1573 12.9029H45.8751C45.6349 12.9029 45.4046 12.8075 45.2349 12.6377C45.0651 12.4679 44.9697 12.2376 44.9697 11.9975C44.9697 11.7574 45.0651 11.5271 45.2349 11.3573C45.4046 11.1875 45.6349 11.0921 45.8751 11.0921H54.2519V2.7162C54.2519 2.47607 54.3473 2.24577 54.5171 2.07598C54.6869 1.90618 54.9172 1.81079 55.1573 1.81079C55.3974 1.81079 55.6277 1.90618 55.7975 2.07598C55.9673 2.24577 56.0627 2.47607 56.0627 2.7162V11.9975C56.0627 12.2376 55.9673 12.4679 55.7975 12.6377C55.6277 12.8075 55.3974 12.9029 55.1573 12.9029Z" fill="white"/>
<path d="M33.5 52.6674C29.7395 52.6674 26.0634 51.5523 22.9366 49.4631C19.8099 47.3738 17.3729 44.4043 15.9338 40.9301C14.4947 37.4558 14.1182 33.6328 14.8518 29.9446C15.5854 26.2563 17.3963 22.8684 20.0554 20.2093C22.7145 17.5502 26.1024 15.7394 29.7906 15.0057C33.4789 14.2721 37.3019 14.6486 40.7761 16.0877C44.2504 17.5268 47.2199 19.9638 49.3091 23.0906C51.3984 26.2173 52.5135 29.8934 52.5135 33.6539C52.508 38.6949 50.503 43.5279 46.9385 47.0924C43.3739 50.6569 38.541 52.6619 33.5 52.6674ZM33.5 16.4512C30.0976 16.4512 26.7716 17.4601 23.9427 19.3504C21.1137 21.2406 18.9088 23.9273 17.6067 27.0707C16.3047 30.2141 15.964 33.673 16.6278 37.01C17.2916 40.347 18.93 43.4122 21.3358 45.8181C23.7417 48.2239 26.8069 49.8623 30.1439 50.5261C33.4809 51.1898 36.9398 50.8492 40.0832 49.5471C43.2265 48.2451 45.9132 46.0402 47.8035 43.2112C49.6938 40.3822 50.7027 37.0563 50.7027 33.6539C50.6976 29.093 48.8836 24.7204 45.6586 21.4953C42.4335 18.2703 38.0609 16.4562 33.5 16.4512Z" fill="white"/>
<path d="M33.5 34.5666C30.4316 34.5666 27.9354 32.3565 27.9354 29.6393C27.937 29.3188 27.9719 28.9993 28.0395 28.6859C28.3695 27.5056 29.0882 26.4712 30.0791 25.75C31.0701 25.0289 32.2754 24.6632 33.5 24.7121C34.7222 24.6625 35.9255 25.0263 36.9156 25.7447C37.9057 26.463 38.6248 27.4941 38.9569 28.6715C38.9851 28.7884 38.9898 28.9098 38.9706 29.0285C38.9514 29.1473 38.9087 29.261 38.8451 29.3631C38.7815 29.4652 38.6981 29.5536 38.5999 29.6231C38.5018 29.6926 38.3907 29.7418 38.2733 29.7679C38.1559 29.794 38.0344 29.7965 37.916 29.7751C37.7976 29.7538 37.6847 29.709 37.5838 29.6435C37.4829 29.578 37.3961 29.4931 37.3284 29.3937C37.2607 29.2942 37.2135 29.1823 37.1895 29.0644C36.9471 28.2893 36.452 27.6178 35.7832 27.1571C35.1144 26.6964 34.3106 26.4732 33.5 26.5229C32.6895 26.4731 31.8857 26.6963 31.217 27.1568C30.5482 27.6173 30.053 28.2886 29.8105 29.0635C29.7694 29.2524 29.7479 29.4451 29.7462 29.6384C29.7462 31.3587 31.4293 32.7548 33.5 32.7548C33.7401 32.7548 33.9704 32.8502 34.1402 33.02C34.31 33.1898 34.4054 33.4201 34.4054 33.6602C34.4054 33.9004 34.31 34.1307 34.1402 34.3005C33.9704 34.4703 33.7401 34.5656 33.5 34.5656V34.5666Z" fill="white"/>
<path d="M33.5 42.5958C32.2825 42.6404 31.0849 42.2777 30.0969 41.565C29.1088 40.8522 28.3867 39.8303 28.045 38.6609C27.9965 38.4294 28.0406 38.1882 28.1677 37.9888C28.2948 37.7893 28.4949 37.6476 28.7251 37.5937C28.9554 37.5399 29.1976 37.5784 29.3999 37.7008C29.6022 37.8232 29.7486 38.0199 29.8078 38.2489C30.0554 39.0209 30.5523 39.6888 31.2206 40.1478C31.8889 40.6068 32.6906 40.8309 33.5 40.7849C34.3093 40.831 35.111 40.607 35.7792 40.1482C36.4475 39.6893 36.9445 39.0216 37.1923 38.2498C37.2313 38.0588 37.2519 37.8644 37.2538 37.6694C37.2538 35.9591 35.5707 34.5675 33.5 34.5675C33.2599 34.5675 33.0296 34.4721 32.8598 34.3023C32.69 34.1325 32.5946 33.9022 32.5946 33.6621C32.5946 33.422 32.69 33.1917 32.8598 33.0219C33.0296 32.8521 33.2599 32.7567 33.5 32.7567C36.5684 32.7567 39.0646 34.9605 39.0646 37.6694C39.0622 37.9947 39.0273 38.319 38.9605 38.6373C38.6224 39.8117 37.9012 40.8393 36.9117 41.5566C35.9222 42.2738 34.7213 42.6396 33.5 42.5958Z" fill="white"/>
<path d="M33.5 44.7035C33.2599 44.7035 33.0296 44.6081 32.8598 44.4383C32.69 44.2685 32.5946 44.0382 32.5946 43.7981V41.6903C32.5946 41.4502 32.69 41.2199 32.8598 41.0501C33.0296 40.8803 33.2599 40.7849 33.5 40.7849C33.7401 40.7849 33.9704 40.8803 34.1402 41.0501C34.31 41.2199 34.4054 41.4502 34.4054 41.6903V43.7981C34.4054 44.0382 34.31 44.2685 34.1402 44.4383C33.9704 44.6081 33.7401 44.7035 33.5 44.7035Z" fill="white"/>
<path d="M33.5 26.523C33.2599 26.523 33.0296 26.4276 32.8598 26.2578C32.69 26.088 32.5946 25.8577 32.5946 25.6176V23.5098C32.5946 23.2696 32.69 23.0394 32.8598 22.8696C33.0296 22.6998 33.2599 22.6044 33.5 22.6044C33.7401 22.6044 33.9704 22.6998 34.1402 22.8696C34.31 23.0394 34.4054 23.2696 34.4054 23.5098V25.6176C34.4054 25.8577 34.31 26.088 34.1402 26.2578C33.9704 26.4276 33.7401 26.523 33.5 26.523Z" fill="white"/>
</svg>
