<svg width="74" height="74" viewBox="0 0 74 74" fill="none" xmlns="http://www.w3.org/2000/svg">
<path d="M50.4118 4H23.5882C22.1067 4.00166 20.6862 4.58845 19.6386 5.63164C18.591 6.67483 18.0017 8.08922 18 9.56452V67.4355C18.0017 68.9108 18.591 70.3252 19.6386 71.3684C20.6862 72.4116 22.1067 72.9983 23.5882 73H50.4118C51.8933 72.9983 53.3138 72.4116 54.3614 71.3684C55.409 70.3252 55.9983 68.9108 56 67.4355V9.56452C55.9983 8.08922 55.409 6.67483 54.3614 5.63164C53.3138 4.58845 51.8933 4.00166 50.4118 4ZM44.5779 6.22581L43.9073 9.56452H30.0928L29.4222 6.22581H44.5779ZM53.7647 67.4355C53.7637 68.3207 53.4101 69.1693 52.7816 69.7952C52.153 70.4211 51.3007 70.7732 50.4118 70.7742H23.5882C22.6993 70.7732 21.847 70.4211 21.2184 69.7952C20.5899 69.1693 20.2363 68.3207 20.2353 67.4355V9.56452C20.2363 8.67934 20.5899 7.8307 21.2184 7.20479C21.847 6.57888 22.6993 6.2268 23.5882 6.22581H27.1425L28.0805 10.8957C28.1312 11.148 28.268 11.375 28.4679 11.5381C28.6677 11.7012 28.9181 11.7903 29.1765 11.7903H44.8235C45.0819 11.7903 45.3323 11.7012 45.5321 11.5381C45.732 11.375 45.8688 11.148 45.9195 10.8957L46.8575 6.22581H50.4118C51.3007 6.2268 52.153 6.57888 52.7816 7.20479C53.4101 7.8307 53.7637 8.67934 53.7647 9.56452V67.4355Z" fill="white"/>
<path d="M30.0625 65.9062H23.125C22.8183 65.9062 22.5242 66.0281 22.3074 66.2449C22.0906 66.4617 21.9688 66.7558 21.9688 67.0625C21.9688 67.3692 22.0906 67.6633 22.3074 67.8801C22.5242 68.0969 22.8183 68.2188 23.125 68.2188H30.0625C30.3692 68.2188 30.6633 68.0969 30.8801 67.8801C31.0969 67.6633 31.2188 67.3692 31.2188 67.0625C31.2188 66.7558 31.0969 66.4617 30.8801 66.2449C30.6633 66.0281 30.3692 65.9062 30.0625 65.9062Z" fill="white"/>
<path d="M34.6875 65.9062H33.5312C33.2246 65.9062 32.9305 66.0281 32.7137 66.2449C32.4968 66.4617 32.375 66.7558 32.375 67.0625C32.375 67.3692 32.4968 67.6633 32.7137 67.8801C32.9305 68.0969 33.2246 68.2188 33.5312 68.2188H34.6875C34.9942 68.2188 35.2883 68.0969 35.5051 67.8801C35.7219 67.6633 35.8438 67.3692 35.8438 67.0625C35.8438 66.7558 35.7219 66.4617 35.5051 66.2449C35.2883 66.0281 34.9942 65.9062 34.6875 65.9062Z" fill="white"/>
<path d="M36.9806 25C31.3221 25 26.7188 29.6034 26.7188 35.2618C26.7188 37.8612 28.3566 41.5338 31.587 46.1777C33.9482 49.5724 36.2705 52.1993 36.3683 52.3096L36.9806 53L37.593 52.3096C37.6906 52.1993 40.0129 49.5724 42.3743 46.1777C45.6045 41.5338 47.2426 37.8612 47.2426 35.2618C47.2426 29.6034 42.639 25 36.9806 25ZM41.0394 45.2297C39.4434 47.5257 37.8304 49.5017 36.9806 50.5098C36.1329 49.5045 34.5258 47.5359 32.9309 45.2429C29.9378 40.9401 28.3557 37.4886 28.3557 35.2618C28.3557 30.5061 32.2249 26.637 36.9806 26.637C41.7365 26.637 45.6054 30.5061 45.6054 35.2618C45.6054 37.4863 44.0265 40.9331 41.0394 45.2297Z" fill="white"/>
<path d="M36.9805 28.7926C33.641 28.7926 30.9241 31.5095 30.9241 34.849C30.9241 38.1886 33.641 40.9057 36.9805 40.9057C40.3203 40.9057 43.0372 38.1886 43.0372 34.849C43.0372 31.5095 40.3203 28.7926 36.9805 28.7926ZM36.9805 39.2687C34.5437 39.2687 32.5611 37.286 32.5611 34.849C32.5611 32.4122 34.5437 30.4296 36.9805 30.4296C39.4175 30.4296 41.4002 32.4122 41.4002 34.849C41.4002 37.286 39.4175 39.2687 36.9805 39.2687Z" fill="white"/>
</svg>
