<svg width="85" height="85" viewBox="0 0 85 85" fill="none" xmlns="http://www.w3.org/2000/svg">
<path d="M68.1043 30.158C67.8057 29.7599 67.4076 29.4613 67.0095 29.4613H58.5493C58.4498 29.4613 58.4497 29.4613 58.4497 29.4613H58.3502H49.89C49.4919 29.4613 49.0938 29.7599 48.8947 30.158C48.6956 30.9543 43.8186 48.9695 49.9896 57.0316C51.7811 59.3208 54.2694 60.6147 57.4544 60.8138V82.9098H52.5774C51.9802 82.9098 51.5821 83.3079 51.5821 83.9051C51.5821 84.5023 51.9802 84.9004 52.5774 84.9004H64.4216C65.0188 84.9004 65.417 84.5023 65.417 83.9051C65.417 83.3079 65.0188 82.9098 64.4216 82.9098H59.5446V60.9133C62.7296 60.7142 65.3174 59.4203 67.109 57.0316C73.1804 48.9695 68.3034 30.9543 68.1043 30.158ZM50.4872 31.5515L58.2507 31.4519C58.3502 31.4519 58.3502 31.4519 58.3502 31.4519H58.4497H66.1137C66.3127 32.3477 66.7109 33.9402 67.109 36.0304C66.3127 36.329 65.3174 36.6276 63.8245 36.6276C61.7343 36.6276 60.6394 36.1299 59.4451 35.5327C58.1512 34.9355 56.7577 34.2388 54.1699 34.2388C52.1793 34.2388 50.7858 34.6369 49.691 35.1346C49.9896 33.5421 50.2882 32.3477 50.4872 31.5515ZM65.417 55.8372C63.8245 57.9273 61.6348 58.9227 58.6488 58.9227H58.5493H58.4497C58.4497 58.9227 58.4497 58.9227 58.3502 58.9227C58.3502 58.9227 58.3502 58.9227 58.2507 58.9227C58.2507 58.9227 58.2507 58.9227 58.1512 58.9227C55.1652 58.9227 52.9755 57.9273 51.383 55.8372C47.9989 51.4578 48.3971 43.2962 49.2928 37.4238L49.691 37.2248C50.8853 36.6276 51.9802 36.1299 54.0704 36.1299C56.1605 36.1299 57.2554 36.6276 58.4497 37.2248C59.7437 37.822 61.1371 38.5187 63.7249 38.5187C65.3174 38.5187 66.4123 38.2201 67.3081 37.9215C68.3034 43.7939 68.602 51.5573 65.417 55.8372Z" fill="white"/>
<path d="M38.6429 27.8689C35.9556 25.281 34.4626 21.9965 34.4626 18.6124V9.05738C35.2589 8.65925 35.7565 7.96253 35.7565 7.06674V2.1897C35.7565 0.995316 34.7612 0 33.5668 0H24.5094C23.3151 0 22.3197 0.995316 22.3197 2.1897V6.96721C22.3197 7.96253 23.0165 8.75878 23.9122 9.05738V18.1148C23.9122 21.6979 22.3197 25.1815 19.6324 27.5703C16.6464 30.2576 14.8549 34.1393 14.8549 38.2201V81.5164C14.8549 83.4075 16.4474 85 18.3385 85H39.7378C41.6289 85 43.2214 83.4075 43.2214 81.5164V38.2201C43.2214 34.3384 41.5293 30.4567 38.6429 27.8689ZM24.5094 1.99063H33.5668C33.6663 1.99063 33.7659 2.09016 33.7659 2.1897V6.96721C33.7659 7.06674 33.6663 7.16628 33.5668 7.16628H33.4673H24.9076H24.609C24.5094 7.16628 24.4099 7.06674 24.4099 6.96721V2.1897H24.3104C24.3104 2.09016 24.4099 1.99063 24.5094 1.99063ZM32.472 20.0059H25.6043C25.8033 19.4087 25.8033 18.8115 25.8033 18.1148V9.15691H32.3724V18.5129C32.3724 19.0105 32.3724 19.5082 32.472 20.0059ZM16.746 38.1206C16.746 34.637 18.2389 31.3525 20.8268 28.9637C22.9169 27.0726 24.4099 24.5843 25.2062 21.897H32.5715C32.671 21.897 32.671 21.897 32.7706 21.897C33.4673 24.5843 34.9603 27.0726 37.15 29.1628C39.6382 31.452 41.0317 34.7365 41.0317 38.1206V39.4145H16.746V38.1206ZM16.746 41.4052H41.1312V71.3642H16.746V41.4052ZM39.7378 83.0094H18.2389C17.4427 83.0094 16.746 82.3126 16.746 81.5164V73.4543H41.1312V81.5164C41.2308 82.3126 40.534 83.0094 39.7378 83.0094Z" fill="white"/>
</svg>
