<svg width="152" height="149" viewBox="0 0 152 149" fill="none" xmlns="http://www.w3.org/2000/svg">
<path d="M37.8198 132.42L36.7098 138.21C34.9098 138.07 32.9998 138 30.9798 138H27.8298C26.1898 138 24.7298 138.03 23.4498 138.09V136.8C24.1298 136.78 24.6298 136.68 24.9498 136.5C25.2898 136.32 25.5098 136.05 25.6098 135.69C25.7298 135.31 25.7898 134.76 25.7898 134.04V123.27C25.7898 122.55 25.7298 122.01 25.6098 121.65C25.5098 121.27 25.2898 120.99 24.9498 120.81C24.6298 120.63 24.1298 120.53 23.4498 120.51V119.19C24.7298 119.23 26.1898 119.25 27.8298 119.25H30.9798C32.7998 119.25 34.6698 119.19 36.5898 119.07L36.9198 124.44H35.5098C35.2898 123.6 35.0298 122.92 34.7298 122.4C34.4498 121.88 34.0098 121.47 33.4098 121.17C32.8098 120.85 31.9998 120.69 30.9798 120.69H29.2998V128.07H29.8698C30.7298 128.07 31.3898 127.88 31.8498 127.5C32.3298 127.12 32.5898 126.42 32.6298 125.4H33.9198C33.7998 126.74 33.7398 127.83 33.7398 128.67C33.7398 129.49 33.7998 130.59 33.9198 131.97H32.6298C32.5898 131.03 32.3298 130.39 31.8498 130.05C31.3898 129.69 30.7298 129.51 29.8698 129.51H29.2998V136.56H31.1298C32.6698 136.56 33.8598 136.2 34.6998 135.48C35.5398 134.74 36.1298 133.72 36.4698 132.42H37.8198ZM51.3927 119.19C52.8727 119.31 53.9727 119.37 54.6927 119.37C55.4327 119.37 56.5227 119.31 57.9627 119.19V120.51C57.0827 120.53 56.4727 120.86 56.1327 121.5C55.7927 122.14 55.6227 123.02 55.6227 124.14V138H54.3027L44.6127 124.47V133.11C44.6127 134.23 44.7827 135.12 45.1227 135.78C45.4627 136.42 46.0827 136.76 46.9827 136.8V138.09C45.4827 137.99 44.3827 137.94 43.6827 137.94C43.0027 137.94 41.9127 137.99 40.4127 138.09V136.8C41.2727 136.76 41.8727 136.42 42.2127 135.78C42.5727 135.12 42.7527 134.23 42.7527 133.11V122.94C42.7527 122.2 42.5227 121.62 42.0627 121.2C41.6227 120.78 41.0727 120.57 40.4127 120.57V119.25C41.4527 119.29 42.2427 119.31 42.7827 119.31C43.3227 119.31 44.1127 119.29 45.1527 119.25L53.7627 131.22V124.14C53.7627 123.02 53.5827 122.14 53.2227 121.5C52.8827 120.86 52.2727 120.53 51.3927 120.51V119.19ZM69.0526 120.51C68.3526 120.53 67.8326 120.63 67.4926 120.81C67.1526 120.99 66.9326 121.26 66.8326 121.62C66.7326 121.98 66.6826 122.53 66.6826 123.27V134.04C66.6826 134.76 66.7326 135.31 66.8326 135.69C66.9326 136.05 67.1526 136.32 67.4926 136.5C67.8326 136.68 68.3526 136.78 69.0526 136.8V138.09C67.3726 137.95 65.9926 137.88 64.9126 137.88C63.8726 137.88 62.5126 137.95 60.8326 138.09V136.8C61.5126 136.78 62.0126 136.68 62.3326 136.5C62.6726 136.32 62.8926 136.05 62.9926 135.69C63.1126 135.31 63.1726 134.76 63.1726 134.04V123.27C63.1726 122.55 63.1126 122.01 62.9926 121.65C62.8926 121.27 62.6726 120.99 62.3326 120.81C62.0126 120.63 61.5126 120.53 60.8326 120.51V119.19L61.5526 119.25C63.1126 119.35 64.2326 119.4 64.9126 119.4C65.7726 119.4 66.9426 119.34 68.4226 119.22L69.0526 119.19V120.51ZM81.7895 133.14C81.7895 132.42 81.7295 131.88 81.6095 131.52C81.5095 131.14 81.2895 130.86 80.9495 130.68C80.6295 130.5 80.1295 130.4 79.4495 130.38V129.15C81.3495 129.25 82.6495 129.3 83.3495 129.3C84.0295 129.3 85.3395 129.25 87.2795 129.15V130.38C86.6995 130.4 86.2795 130.5 86.0195 130.68C85.7795 130.86 85.6295 131.12 85.5695 131.46C85.5095 131.8 85.4795 132.36 85.4795 133.14V137.13C84.6195 137.53 83.6095 137.85 82.4495 138.09C81.3095 138.33 80.2395 138.45 79.2395 138.45C76.4795 138.45 74.4195 137.7 73.0595 136.2C71.6995 134.68 71.0195 132.48 71.0195 129.6C71.0195 127.38 71.3895 125.47 72.1295 123.87C72.8695 122.25 73.9495 121.01 75.3695 120.15C76.7895 119.29 78.4895 118.86 80.4695 118.86C81.9895 118.86 83.6595 119.06 85.4795 119.46C85.3595 120.64 85.2995 122.02 85.2995 123.6V124.59H83.8595C83.7195 123.33 83.3295 122.34 82.6895 121.62C82.0695 120.9 81.1795 120.54 80.0195 120.54C76.5395 120.54 74.7995 123.29 74.7995 128.79C74.7995 131.51 75.1495 133.54 75.8495 134.88C76.5695 136.22 77.7495 136.89 79.3895 136.89C79.7495 136.89 80.1395 136.82 80.5595 136.68C80.9995 136.54 81.4095 136.35 81.7895 136.11V133.14ZM110.661 134.04C110.721 134.82 110.801 135.38 110.901 135.72C111.001 136.06 111.201 136.32 111.501 136.5C111.821 136.68 112.321 136.78 113.001 136.8V138.09C111.501 137.99 110.141 137.94 108.921 137.94C107.681 137.94 106.311 137.99 104.811 138.09V136.8C105.711 136.76 106.321 136.59 106.641 136.29C106.981 135.97 107.151 135.42 107.151 134.64L107.121 134.04L106.521 124.08L101.061 138.21H99.9507L93.9207 123.87L93.3207 133.68C93.2807 134.72 93.4307 135.49 93.7707 135.99C94.1307 136.49 94.7607 136.76 95.6607 136.8V138.09C94.4607 137.99 93.3707 137.94 92.3907 137.94C91.4107 137.94 90.3207 137.99 89.1207 138.09V136.8C90.0007 136.76 90.5907 136.51 90.8907 136.05C91.1907 135.59 91.3807 134.8 91.4607 133.68L92.1507 123C92.1907 122.12 91.9807 121.5 91.5207 121.14C91.0807 120.76 90.5207 120.57 89.8407 120.57V119.25C90.9607 119.31 91.9407 119.34 92.7807 119.34C93.6207 119.34 94.5007 119.31 95.4207 119.25L101.391 132.48L106.521 119.25C107.801 119.29 108.761 119.31 109.401 119.31C110.061 119.31 111.011 119.29 112.251 119.25V120.57C111.491 120.57 110.901 120.75 110.481 121.11C110.061 121.45 109.881 122.07 109.941 122.97L110.661 134.04ZM129.668 135.6C129.748 135.9 129.948 136.18 130.268 136.44C130.608 136.68 130.978 136.8 131.378 136.8V138.09C129.578 137.97 128.318 137.91 127.598 137.91C126.858 137.91 125.588 137.97 123.788 138.09V136.8C124.568 136.78 125.108 136.68 125.408 136.5C125.728 136.3 125.888 136.02 125.888 135.66C125.888 135.46 125.838 135.21 125.738 134.91L125.048 132.51H119.048L118.328 134.91C118.188 135.33 118.118 135.65 118.118 135.87C118.118 136.17 118.258 136.4 118.538 136.56C118.818 136.7 119.338 136.78 120.098 136.8V138.09C118.978 137.99 117.998 137.94 117.158 137.94C116.378 137.94 115.498 137.99 114.518 138.09V136.8C114.898 136.8 115.248 136.68 115.568 136.44C115.908 136.18 116.138 135.9 116.258 135.6L121.178 119.16H124.538L129.668 135.6ZM124.628 131.07L122.138 122.46H122.018L119.468 131.07H124.628Z" fill="#FAFAFA"/>
<g clip-path="url(#clip0)">
<path d="M93.2464 13.7778C93.2464 5.14039 89.1866 1.36731 88.5194 0L76.9325 10.1188L65.3457 0C64.6202 1.48708 60.6187 5.03789 60.6187 13.7778C60.6187 22.4151 64.6785 26.1879 65.3457 27.5555L76.9325 17.4368L88.5194 27.5555C89.2449 26.0685 93.2464 22.5173 93.2464 13.7778Z" fill="#FAFAFA"/>
<path d="M29.8403 22.0444L76.9324 94.0563L56.825 22.0444H29.8403Z" fill="#FAFAFA"/>
<path d="M76.9321 94.0563L124.024 22.0444H97.0395L76.9321 94.0563Z" fill="#FAFAFA"/>
</g>
<defs>
<clipPath id="clip0">
<rect width="94.1841" height="94.0563" fill="white" transform="translate(29.8403)"/>
</clipPath>
</defs>
</svg>
