<svg width="36" height="32" viewBox="0 0 36 32" fill="none" xmlns="http://www.w3.org/2000/svg">
<path d="M0.62129 15.3007L9.42504 19.689C9.76555 19.857 10.1676 19.845 10.4931 19.6545L18.3293 15.0982L13.5862 19.3019C13.3447 19.5165 13.2067 19.8225 13.2067 20.1451V30.3844C13.2067 31.4645 14.5852 31.9191 15.2317 31.061L19.0373 26.0006L28.4486 31.361C29.1086 31.7406 29.9546 31.3595 30.1076 30.6049L35.9773 1.34983C36.1528 0.470675 35.2783 -0.246449 34.4653 0.0806075L0.714293 13.2454C-0.191733 13.5994 -0.250235 14.8672 0.62129 15.3007ZM33.3672 2.9251L28.2086 28.6351L19.2908 23.5552C18.8048 23.2776 18.1793 23.4006 17.8343 23.8567L15.4567 27.0178V20.6507L28.2836 9.2847C29.2991 8.38605 28.1321 6.78827 26.9725 7.46939L9.88705 17.4041L3.89888 14.4201L33.3672 2.9251Z" fill="#FAFAFA"/>
</svg>
